<?xml version="1.0" standalone="no"?>
<!DOCTYPE svg PUBLIC "-//W3C//DTD SVG 20010904//EN"
 "http://www.w3.org/TR/2001/REC-SVG-20010904/DTD/svg10.dtd">
<svg version="1.0" xmlns="http://www.w3.org/2000/svg"
 width="512.000000pt" height="512.000000pt" viewBox="0 0 512.000000 512.000000"
 preserveAspectRatio="xMidYMid meet">
<metadata>
Created by potrace 1.11, written by Peter Selinger 2001-2013
</metadata>
<g transform="translate(0.000000,512.000000) scale(0.100000,-0.100000)"
fill="#000000" stroke="none">
<path d="M2385 4555 l-59 -204 -130 -41 c-72 -23 -164 -53 -204 -67 l-72 -26
59 -41 c33 -22 112 -77 175 -121 64 -43 117 -86 117 -95 1 -8 2 -101 3 -207 0
-105 3 -194 6 -197 3 -3 73 47 155 110 83 64 160 120 171 126 21 10 33 6 396
-112 26 -8 27 -8 17 18 -6 15 -40 108 -75 206 -63 176 -64 180 -46 200 18 20
212 290 225 312 4 7 -15 10 -61 8 -144 -6 -362 -8 -365 -3 -2 2 -53 72 -113
154 -60 83 -116 158 -124 167 -15 16 -21 2 -75 -187z"/>
<path d="M4000 4185 c-36 -52 -70 -103 -75 -113 -45 -77 -218 -322 -228 -322
-29 -1 -536 -9 -579 -9 l-48 -1 200 -252 c109 -139 196 -256 194 -260 -3 -5
-21 -59 -39 -121 -18 -62 -58 -192 -89 -291 -31 -98 -56 -180 -56 -181 0 -5
123 39 380 135 l215 79 80 -55 c44 -31 114 -80 155 -109 198 -141 279 -194
284 -186 3 5 4 42 1 82 -4 64 -11 242 -19 477 l-2 63 254 188 c139 104 249
192 243 196 -6 3 -19 8 -28 10 -10 2 -67 18 -128 35 -60 18 -117 33 -125 35
-18 4 -314 88 -317 90 -2 1 -48 134 -103 296 -55 162 -101 297 -102 301 -2 4
-32 -35 -68 -87z"/>
<path d="M1731 3618 c-5 -13 -35 -77 -66 -143 -31 -66 -72 -151 -90 -190 -18
-38 -53 -113 -78 -165 -50 -105 -146 -310 -179 -382 -18 -37 -28 -48 -53 -52
-16 -3 -39 -8 -50 -10 -11 -2 -42 -7 -69 -10 -27 -4 -52 -9 -55 -10 -3 -2 -33
-7 -66 -11 -32 -3 -62 -8 -65 -10 -3 -1 -27 -6 -55 -9 -27 -4 -90 -14 -140
-22 -49 -8 -103 -17 -120 -20 -69 -11 -93 -15 -145 -24 -30 -5 -73 -12 -95
-15 -22 -4 -47 -8 -55 -10 -8 -3 -33 -7 -55 -11 -22 -3 -41 -7 -43 -8 -2 -2
147 -144 257 -245 14 -13 89 -84 166 -156 145 -138 192 -182 266 -251 85 -79
81 -69 65 -175 -8 -52 -18 -112 -21 -134 -3 -22 -17 -112 -30 -200 -14 -88
-27 -173 -30 -190 -2 -16 -7 -48 -10 -70 -3 -22 -12 -78 -20 -125 -8 -47 -17
-105 -20 -130 -3 -25 -8 -58 -11 -74 l-6 -29 53 30 c30 17 79 44 109 60 30 17
147 81 260 143 113 62 230 126 260 143 30 16 99 54 152 84 l98 54 167 -84
c658 -330 775 -388 779 -385 2 3 -8 62 -21 134 -14 71 -28 144 -31 163 -3 18
-8 43 -10 55 -3 11 -9 46 -15 76 -5 30 -18 98 -29 150 -10 52 -28 147 -40 210
-12 63 -27 144 -35 180 l-14 64 139 141 c76 77 244 247 373 377 165 167 229
239 218 242 -9 2 -43 7 -76 11 -32 4 -66 8 -75 10 -8 1 -42 6 -75 9 -33 4 -67
9 -75 11 -8 2 -46 6 -83 10 -37 3 -76 8 -85 10 -38 7 -101 15 -162 21 -36 3
-67 7 -70 9 -3 1 -34 6 -70 9 -36 4 -74 8 -85 10 -11 2 -52 7 -91 11 -39 4
-76 10 -82 14 -5 3 -48 80 -95 171 -47 91 -129 248 -181 350 -53 102 -122 236
-154 298 -31 61 -60 112 -65 112 -4 0 -11 -10 -16 -22z"/>
</g>
</svg>
